<svg width="300" height="95" viewBox="0 0 300 95" fill="none" xmlns="http://www.w3.org/2000/svg">
<path d="M221.555 58.4569H229.721L234.832 40.0294C235.24 37.9138 235.758 34.3508 236.388 29.3403H236.61C237.129 33.6085 237.647 37.1716 238.166 40.0294L243.277 58.4569H251.444L240.721 19.4863H232.277L221.555 58.4569Z" fill="#09090F"/>
<path d="M231.098 46.207V53.7228H243.827V46.207H231.098Z" fill="#09090F"/>
<path d="M207.544 59.2345C203.803 59.2345 200.859 58.1767 198.711 56.0612C196.562 53.9456 195.488 50.9579 195.488 47.0979H203.599C203.599 50.0671 204.951 51.5517 207.655 51.5517C208.914 51.5517 209.877 51.2362 210.544 50.6053C211.211 49.9372 211.544 49.1021 211.544 48.1C211.544 47.0979 211.155 46.1515 210.377 45.2608C209.636 44.37 208.71 43.5906 207.599 42.9225C206.488 42.2544 205.266 41.475 203.933 40.5843C202.599 39.6564 201.377 38.7285 200.266 37.8007C199.155 36.8357 198.211 35.5923 197.433 34.0706C196.692 32.5489 196.322 30.8602 196.322 29.0044C196.322 25.961 197.322 23.4929 199.322 21.6C201.359 19.6701 204.136 18.7051 207.655 18.7051C211.248 18.7051 214.062 19.7257 216.099 21.7671C218.136 23.7713 219.155 26.5734 219.155 30.1736H211.044C211.044 27.6126 209.896 26.3322 207.599 26.3322C206.562 26.3322 205.748 26.592 205.155 27.1116C204.599 27.6312 204.322 28.3364 204.322 29.2271C204.322 30.155 204.692 31.0458 205.433 31.8994C206.21 32.753 207.173 33.4953 208.322 34.1263C209.47 34.7201 210.71 35.4624 212.044 36.3532C213.377 37.2068 214.618 38.1161 215.766 39.0811C216.914 40.0461 217.859 41.3266 218.599 42.9225C219.377 44.4813 219.766 46.2257 219.766 48.1557C219.766 51.4218 218.673 54.0941 216.488 56.1725C214.303 58.2138 211.322 59.2345 207.544 59.2345Z" fill="#09090F"/>
<path d="M193.586 19.4863V27.0021H185.975V58.4569H177.864V27.0021H169.559L170.947 19.4863H193.586Z" fill="#09090F"/>
<path d="M154.725 27.0021H142.697V35.0746H152.92V42.312H142.697V58.4569H134.809V19.4863H153.336L154.725 27.0021Z" fill="#09090F"/>
<path d="M116.709 50.9412H129.431V58.4569H108.82V19.4863H128.876V27.0021H116.709V35.0746H127.765V42.312H116.709V50.9412Z" fill="#09090F"/>
<path d="M94.1367 19.4863H101.914V58.4569H94.1367L87.5812 43.3697L84.0812 33.8498L83.9145 34.0168C84.5812 39.3613 84.9145 44.8729 84.9145 50.5515V58.4569H77.1367V19.4863H84.9145L92.3034 36.4107C92.6367 37.2272 93.0997 38.4706 93.6923 40.1407C94.2849 41.8109 94.7478 43.0543 95.0812 43.8708L95.2478 43.7038C94.5071 38.2479 94.1367 33.1817 94.1367 28.5052V19.4863Z" fill="#09090F"/>
<path d="M59.0373 50.9412H71.7595V58.4569H51.1484V19.4863H71.204V27.0021H59.0373V35.0746H70.0929V42.312H59.0373V50.9412Z" fill="#09090F"/>
<path d="M41.2683 38.217C44.5185 40.0542 46.4967 42.9686 46.4967 46.8214C46.4967 54.1864 40.8743 58.4569 33.8177 58.4569H22.2344V19.4863H33.651C40.3439 19.4863 45.1634 23.7622 45.1634 30.5651C45.1634 33.9893 43.693 35.9672 41.2683 38.217ZM32.8794 26.9464H30.1233V35.3839H33.1572C35.4165 35.3839 37.1634 33.6828 37.1634 30.8991C37.1634 28.264 35.3239 26.9464 32.8794 26.9464ZM33.0461 50.9968C36.1943 50.9968 38.3856 49.5865 38.3856 46.7657C38.3856 43.9079 36.2498 42.1697 33.2128 42.1697H30.1233V50.9968H33.0461Z" fill="#09090F"/>
<path fill-rule="evenodd" clip-rule="evenodd" d="M265.642 45.3739H262.947V58.4569H255.059V19.4863H265.642C273.276 19.4863 278.614 25.0147 278.614 32.458C278.614 41.2823 273.361 45.3739 265.642 45.3739ZM262.947 37.8587V27.0026H265.53C268.382 27.0026 270.503 28.8213 270.503 32.4585C270.503 36.0586 268.382 37.8587 265.53 37.8587H262.947Z" fill="#09090F"/>
<path d="M280.559 58.4569H271.947L265.53 44.3615L273.119 42.8578L280.559 58.4569Z" fill="#09090F"/>
<path d="M166.778 19.4863H157.5L158.889 26.9945H165.389L166.778 19.4863Z" fill="#FF2416"/>
<path d="M165.389 31.1699H158.889L157.5 58.4569L162.139 61.2405L166.778 58.4569L165.389 31.1699Z" fill="#FF2416"/>
</svg>
